{"title":"Mission Impossible-Rogue Nation(2015)MPEG-4[DaScubaDude]","uid":13363084,"size":1312702073,"categoryP":"video","categoryS":"movies","magnet":"?xt=urn:btih:b5286de1393009ae6ef3ed2fed741ecc846c34f6&amp;dn=Mission+Impossible-Rogue+Nation%282015%29MPEG-4%5BDaScubaDude%5D&amp;tr=udp%3A%2F%2Ftracker.leechers-paradise.org%3A6969&amp;tr=udp%3A%2F%2Fzer0day.ch%3A1337&amp;tr=udp%3A%2F%2Fopen.demonii.com%3A1337&amp;tr=udp%3A%2F%2Ftracker.coppersurfer.tk%3A6969&amp;tr=udp%3A%2F%2Fexodus.desync.com%3A6969","seeders":0,"leechers":1,"uploader":"dascuba","files":1,"time":1454147452,"description":"Mission: Impossible - Rogue Nation (2015)\r\nPG-13 | 2h 11min | Action, Adventure, Thriller | 31 July 2015 (USA)\r\nEthan and team take on their most impossible mission yet, eradicating the Syndicate - an International rogue organization as highly skilled as they are, committed to destroying the IMF.\r\nDirector: Christopher McQuarrie\r\nWriters: Christopher McQuarrie (screenplay), Christopher McQuarrie (story) | 2 more credits »\r\nStars: Tom Cruise, Rebecca Ferguson, Jeremy Renner\r\n\r\nGeneral\r\nComplete name                            :Mission Impossible Rogue NationMI5_ROGUE_NATION_Title1.mp4\r\nFormat                                   : MPEG-4\r\nFormat profile                           : Base Media\r\nCodec ID                                 : isom\r\nFile size                                : 1.22 GiB\r\nDuration                                 : 2h 11mn\r\nOverall bit rate                         : 1 332 Kbps\r\nMovie name                               : MI5_ROGUE_NATION\r\nGenre                                    : Action\r\nWriting application                      : Lavf54.6.100\r\n\r\nVideo\r\nID                                       : 1\r\nFormat                                   : AVC\r\nFormat/Info                              : Advanced Video Codec\r\nFormat profile                           :   \r\nFormat settings, CABAC                   : No\r\nFormat settings, ReFrames                : 6 frames\r\nCodec ID                                 : avc1\r\nCodec ID/Info                            : Advanced Video Coding\r\nDuration                                 : 2h 11mn\r\nBit rate                                 : 1 197 Kbps\r\nWidth                                    : 720 pixels\r\nHeight                                   : 404 pixels\r\nDisplay aspect ratio                     : 16:9\r\nFrame rate mode                          : Constant\r\nFrame rate                               : 29.970 fps\r\nColor space                              : YUV\r\nChroma subsampling                       : 4:2:0\r\nBit depth                                : 8 bits\r\nScan type                                : Progressive\r\nBits/(Pixel*Frame)                       : 0.137\r\nStream size                              : 1.10 GiB (90%)\r\n\r\nAudio\r\nID                                       : 2\r\nFormat                                   : AAC\r\nFormat/Info                              : Advanced Audio Codec\r\nFormat profile                           : LC\r\nCodec ID                                 : 40\r\nDuration                                 : 2h 11mn\r\nBit rate mode                            : Constant\r\nBit rate                                 : 128 Kbps\r\nChannel(s)                               : 2 channels\r\nChannel positions                        : Front: L R\r\nSampling rate                            : 44.1 KHz\r\nCompression mode                         : Lossy\r\nStream size                              : 120 MiB (10%)","torrent":{"xt":"urn:btih:b5286de1393009ae6ef3ed2fed741ecc846c34f6","amp;dn":"Mission+Impossible-Rogue+Nation%282015%29MPEG-4%5BDaScubaDude%5D","amp;tr":["udp%3A%2F%2Ftracker.leechers-paradise.org%3A6969","udp%3A%2F%2Fzer0day.ch%3A1337","udp%3A%2F%2Fopen.demonii.com%3A1337","udp%3A%2F%2Ftracker.coppersurfer.tk%3A6969","udp%3A%2F%2Fexodus.desync.com%3A6969"],"infoHash":"b5286de1393009ae6ef3ed2fed741ecc846c34f6","infoHashBuffer":{"type":"Buffer","data":[181,40,109,225,57,48,9,174,110,243,237,47,237,116,30,204,132,108,52,246]},"announce":[],"urlList":[]}}